PathFileType	4	(X/Y/Z)	CPRIT_Patient3_L_AnkleIso_Processed.TRC
DataRate	CameraRate	NumFrames	NumMarkers	Units	OrigDataRate	OrigDataStartFrame	OrigNumFrames
150.205761316872	150.205761316872	4	36	m	150.205761316872	549	       731
Frame#	Time	R.Heel			R.Midfoot.Superior			R.Midfoot.Lateral			R.Toe			L.Heel			L.Midfoot.Superior			L.Midfoot.Lateral			L.Toe			R.Shank.Superior			R.Shank.Inferior			R.Shank.Lateral			R.Shank.Posterior			L.Shank.Superior			L.Shank.Inferior			L.Shank.Posterior			L.Shank.Lateral			R.Patella			L.Patella			R.Thigh.Superior			R.Thigh.Lateral			R.Thigh.Inferior			L.Thigh.Superior			L.Thigh.Inferior			L.Thigh.Lateral			L.Asis			R.Asis			R.Shoulder			L.Shoulder			C7			J.Notch			Sternum			Thoracic			L.Elbow			L.Wrist			R.Elbow			R.Wrist			
		X1	Y1	Z1	X2	Y2	Z2	X3	Y3	Z3	X4	Y4	Z4	X5	Y5	Z5	X6	Y6	Z6	X7	Y7	Z7	X8	Y8	Z8	X9	Y9	Z9	X10	Y10	Z10	X11	Y11	Z11	X12	Y12	Z12	X13	Y13	Z13	X14	Y14	Z14	X15	Y15	Z15	X16	Y16	Z16	X17	Y17	Z17	X18	Y18	Z18	X19	Y19	Z19	X20	Y20	Z20	X21	Y21	Z21	X22	Y22	Z22	X23	Y23	Z23	X24	Y24	Z24	X25	Y25	Z25	X26	Y26	Z26	X27	Y27	Z27	X28	Y28	Z28	X29	Y29	Z29	X30	Y30	Z30	X31	Y31	Z31	X32	Y32	Z32	X33	Y33	Z33	X34	Y34	Z34	X35	Y35	Z35	X36	Y36	Z36	

549	3.648328767123	0.416303934929	0.049496478934	0.096348845110	0.571958353252	0.098724600817	0.167525620120	0.469573785715	0.037868644770	0.175899275287	0.677685437778	0.054850765920	0.217826759657	0.705741498012	0.109937471442	-0.056945118977	0.867560890855	0.132473086368	-0.132224782806	0.760085259757	0.082832335944	-0.133706729504	0.969430311859	0.070157505059	-0.166782450783	0.528477307288	0.359383369002	0.183343282474	0.519973047153	0.239751637087	0.174015757929	0.440574752115	0.293201519123	0.212503250701	0.393502328215	0.359367456753	0.144796278292	0.730025698880	0.422362779827	-0.111399282222	0.762772834825	0.297469362678	-0.112431909487	0.609667153153	0.354787519037	-0.067582139366	0.679806452991	0.319701806757	-0.138824050148	0.560347702194	0.466051479100	0.173760899859	0.715394035876	0.540306485773	-0.100892160968	0.618064543743	0.776915363581	0.195340196155	0.528606713716	0.709766888166	0.245357194807	0.605153619221	0.616929478810	0.168284877632	0.636075818720	0.821476326626	-0.089605256674	0.682727087663	0.680285138558	-0.094585128908	0.562086863015	0.731261002198	-0.139784366852	0.593411587426	0.949507145101	-0.057814698689	0.617770869939	0.936929709181	0.179252379954	0.540443042673	1.460942862587	0.210517640182	0.574617658949	1.433888110476	-0.105579050998	0.523042178480	1.482876389770	0.064100934402	0.625281520190	1.369426063751	0.063078047701	0.664136524767	1.189501680633	0.058410166702	0.415833952661	1.333226472146	0.062574934652	0.528168251535	1.176386744659	-0.292474325271	0.613301102171	0.987817838562	-0.432916852858	0.500157288133	1.185061150891	0.408731134372	0.659746877204	0.988457633654	0.416519159363	
550	3.654986301370	0.416304492567	0.049496729285	0.096349008962	0.571959049697	0.098725347156	0.167526269069	0.469574310074	0.037869388923	0.175899346833	0.677687062598	0.054848993064	0.217825379278	0.705506754477	0.110254778933	-0.057004951486	0.867517301395	0.132114703972	-0.132045707427	0.759941088746	0.082760827078	-0.133559835559	0.969310733547	0.069413004739	-0.166167865521	0.528460059520	0.359385978520	0.183346985876	0.519962761388	0.239754270450	0.174019883038	0.440560257126	0.293200397049	0.212498366167	0.393486624806	0.359362557555	0.144789776443	0.729990347206	0.422336341576	-0.111392223980	0.762734568563	0.297440107380	-0.112421930206	0.609619828343	0.354770368214	-0.067596854248	0.679768722197	0.319680826073	-0.138838454849	0.560324623454	0.466053579738	0.173764613532	0.715367745276	0.540288368896	-0.100892087256	0.618015600327	0.776912530997	0.195360543849	0.528562766894	0.709771073248	0.245353377456	0.605124155120	0.616934010607	0.168297067191	0.636072808584	0.821466009632	-0.089608605553	0.682720134890	0.680271583578	-0.094559406664	0.562077205906	0.731253612926	-0.139799358427	0.593409669808	0.949497558227	-0.057825331254	0.617736080506	0.936930974194	0.179254063695	0.540450873043	1.460943461956	0.210494547565	0.574649934914	1.433885809545	-0.105580460244	0.523071923271	1.482877640698	0.064078797148	0.625286521226	1.369418354730	0.063067897043	0.664147275777	1.189500293689	0.058396999393	0.415839638136	1.333239931207	0.062545011497	0.528182258092	1.176399536552	-0.292493041812	0.613302120024	0.987819849908	-0.432926907695	0.500135070024	1.185060279251	0.408708219979	0.659722684940	0.988455533988	0.416470054043	
551	3.661643835616	0.416305025058	0.049496862972	0.096349079641	0.571959694541	0.098726152737	0.167526799689	0.469574822294	0.037870162803	0.175899422081	0.677688655087	0.054847267901	0.217824081271	0.705279463527	0.110570027714	-0.057058871148	0.867481340629	0.131760746403	-0.131856626907	0.759805546798	0.082690166262	-0.133405819837	0.969199194883	0.068676120266	-0.165539506354	0.528443269796	0.359388434691	0.183350497747	0.519952732977	0.239756885702	0.174023827098	0.440545899413	0.293199554284	0.212493022538	0.393471476770	0.359357906902	0.144782341640	0.729961193243	0.422310085798	-0.111377430026	0.762703108607	0.297411260674	-0.112403655096	0.609577358197	0.354753186814	-0.067608668454	0.679738852674	0.319660069252	-0.138847074201	0.560302312610	0.466055588802	0.173768246038	0.715346118874	0.540270596032	-0.100885091826	0.617968684957	0.776910400129	0.195380557456	0.528519529055	0.709775245910	0.245349503793	0.605095913442	0.616938595663	0.168309933863	0.636073638980	0.821455477292	-0.089609050131	0.682711809515	0.680257042876	-0.094540174582	0.562072950896	0.731245905878	-0.139811932627	0.593410727688	0.949488220885	-0.057834756574	0.617701937348	0.936932688890	0.179256701339	0.540454796556	1.460943580088	0.210471064289	0.574681928921	1.433883664264	-0.105582449082	0.523099218999	1.482878679091	0.064056137747	0.625289916694	1.369411319743	0.063058172643	0.664157928082	1.189500194660	0.058384733189	0.415844137089	1.333252410914	0.062512933797	0.528195793644	1.176413006738	-0.292513153870	0.613303261336	0.987821927968	-0.432937342073	0.500109979608	1.185057782334	0.408683597720	0.659697157264	0.988452937955	0.416414242395	
552	3.668301369863	0.416305527491	0.049496876108	0.096349051045	0.571960286029	0.098727007686	0.167527220889	0.469575323249	0.037870962595	0.175899502913	0.677690202762	0.054845588111	0.217822908014	0.705060121592	0.110882465815	-0.057106309332	0.867453401330	0.131412623589	-0.131657741302	0.759678934135	0.082620474231	-0.133244594731	0.969096023770	0.067948789744	-0.164898277869	0.528426935354	0.359390755808	0.183353648134	0.519942952764	0.239759481567	0.174027476662	0.440531648495	0.293199029083	0.212487087496	0.393456902318	0.359353521499	0.144773842414	0.729937868715	0.422284127546	-0.111354724421	0.762678177270	0.297382982526	-0.112376907638	0.609539468774	0.354736027447	-0.067617245787	0.679716472046	0.319639551744	-0.138849627111	0.560280774188	0.466057506435	0.173771559256	0.715328826332	0.540253220648	-0.100870833528	0.617923856123	0.776908918603	0.195399956427	0.528477072839	0.709779368563	0.245345353611	0.605068913044	0.616943179664	0.168323137962	0.636078249733	0.821444771510	-0.089606230801	0.682702235404	0.680241625967	-0.094526605277	0.562074087246	0.731238039563	-0.139821952538	0.593414742175	0.949479331665	-0.057842932858	0.617668543577	0.936934817523	0.179260186900	0.540454866595	1.460943248865	0.210447605916	0.574713571949	1.433881704731	-0.105584958617	0.523123999626	1.482879585812	0.064033290724	0.625291786362	1.369405175137	0.063049116738	0.664168536188	1.189501480240	0.058373594029	0.415847535813	1.333263958136	0.062479060208	0.528208879363	1.176427044449	-0.292534342181	0.613304514806	0.987824043334	-0.432947992732	0.500082341968	1.185053765223	0.408657690866	0.659670482477	0.988449830450	0.416352011624	
